# xmcd CD database file generated by libcdaudio 0.99.6
# 
# Track frame offsets:
#       182
#       25972
#       48932
#       75097
#       92100
#       117887
#       140507
#       159427
#       181762
#       199730
#       215505
# 
# Disc length: 3158 seconds
# 
# Revision: 3
# Processed by: cddbd v1.4PL0 Copyright (c) Steve Scherf et al.
# Submitted via: libcdaudio 0.99.6
# 
DISCID=860c540b
DTITLE=Jimmy Webb - Suspending Disbelief
DYEAR=1900
DGENRE=
TTITLE0=Too Young To Die
TTITLE1=I Don't Know How To Love You Anymore
TTITLE2=Elvis And Me
TTITLE3=It Won't Bring Her Back
TTITLE4=Sandy Cove
TTITLE5=Friends To Burn
TTITLE6=What Does A Woman See In A Man
TTITLE7=Postcard From Paris
TTITLE8=Just Like Always
TTITLE9=Adios
TTITLE10=I Will Arise
EXTD=
EXTT0=
EXTT1=
EXTT2=
EXTT3=
EXTT4=
EXTT5=
EXTT6=
EXTT7=
EXTT8=
EXTT9=
EXTT10=
PLAYORDER=
